<mxfile host="app.diagrams.net" modified="2023-08-21T09:06:19.974Z" agent="Mozilla/5.0 (Windows NT 10.0; WOW64) AppleWebKit/537.36 (KHTML, like Gecko) Chrome/86.0.4240.198 Safari/537.36" etag="NhB5KxNBw40maB83xxQV" version="21.6.8" type="github">
  <diagram id="6a731a19-8d31-9384-78a2-239565b7b9f0" name="Page-1">
    <mxGraphModel dx="1436" dy="-931" grid="1" gridSize="10" guides="1" tooltips="1" connect="1" arrows="1" fold="1" page="1" pageScale="1" pageWidth="1169" pageHeight="827" background="none" math="0" shadow="0">
      <root>
        <mxCell id="0" />
        <mxCell id="1" parent="0" />
        <mxCell id="BRf2fIvqZhWapeU_Ivpp-127" style="edgeStyle=orthogonalEdgeStyle;rounded=0;orthogonalLoop=1;jettySize=auto;html=1;exitX=0;exitY=0.5;exitDx=0;exitDy=0;entryX=0.5;entryY=0;entryDx=0;entryDy=0;" edge="1" parent="1" source="BRf2fIvqZhWapeU_Ivpp-126" target="BRf2fIvqZhWapeU_Ivpp-104">
          <mxGeometry relative="1" as="geometry">
            <Array as="points">
              <mxPoint x="20" y="2890" />
              <mxPoint x="20" y="1960" />
              <mxPoint x="755" y="1960" />
            </Array>
          </mxGeometry>
        </mxCell>
        <mxCell id="BRf2fIvqZhWapeU_Ivpp-138" value="下个行政区" style="edgeLabel;html=1;align=center;verticalAlign=middle;resizable=0;points=[];fontSize=24;" vertex="1" connectable="0" parent="BRf2fIvqZhWapeU_Ivpp-127">
          <mxGeometry x="0.649" y="-1" relative="1" as="geometry">
            <mxPoint as="offset" />
          </mxGeometry>
        </mxCell>
        <mxCell id="BRf2fIvqZhWapeU_Ivpp-126" value="" style="rounded=0;whiteSpace=wrap;html=1;fillColor=#1ba1e2;fontColor=#ffffff;strokeColor=#006EAF;" vertex="1" parent="1">
          <mxGeometry x="130" y="2810" width="800" height="160" as="geometry" />
        </mxCell>
        <mxCell id="BRf2fIvqZhWapeU_Ivpp-104" value="" style="rounded=0;whiteSpace=wrap;html=1;fillColor=#f8cecc;strokeColor=#b85450;" vertex="1" parent="1">
          <mxGeometry x="650" y="1980" width="210" height="420" as="geometry" />
        </mxCell>
        <mxCell id="BRf2fIvqZhWapeU_Ivpp-57" value="" style="whiteSpace=wrap;html=1;aspect=fixed;dashed=1;opacity=80;fillColor=#fff2cc;strokeColor=#d6b656;" vertex="1" parent="1">
          <mxGeometry x="37.25" y="2010" width="264.5" height="264.5" as="geometry" />
        </mxCell>
        <mxCell id="BRf2fIvqZhWapeU_Ivpp-58" value="" style="endArrow=classic;html=1;rounded=0;" edge="1" parent="1" target="BRf2fIvqZhWapeU_Ivpp-60">
          <mxGeometry width="50" height="50" relative="1" as="geometry">
            <mxPoint x="240.5" y="2080" as="sourcePoint" />
            <mxPoint x="380" y="2090" as="targetPoint" />
          </mxGeometry>
        </mxCell>
        <mxCell id="BRf2fIvqZhWapeU_Ivpp-62" value="" style="edgeStyle=orthogonalEdgeStyle;rounded=0;orthogonalLoop=1;jettySize=auto;html=1;" edge="1" parent="1" source="BRf2fIvqZhWapeU_Ivpp-60">
          <mxGeometry relative="1" as="geometry">
            <mxPoint x="687.25" y="2078" as="targetPoint" />
          </mxGeometry>
        </mxCell>
        <mxCell id="BRf2fIvqZhWapeU_Ivpp-60" value="多个行政区" style="shape=parallelogram;html=1;strokeWidth=2;perimeter=parallelogramPerimeter;whiteSpace=wrap;rounded=1;arcSize=12;size=0.23;" vertex="1" parent="1">
          <mxGeometry x="420.5" y="2028" width="150" height="100" as="geometry" />
        </mxCell>
        <mxCell id="BRf2fIvqZhWapeU_Ivpp-114" style="edgeStyle=orthogonalEdgeStyle;rounded=0;orthogonalLoop=1;jettySize=auto;html=1;exitX=0.5;exitY=1;exitDx=0;exitDy=0;exitPerimeter=0;entryX=0.5;entryY=0;entryDx=0;entryDy=0;entryPerimeter=0;" edge="1" parent="1" source="BRf2fIvqZhWapeU_Ivpp-63" target="BRf2fIvqZhWapeU_Ivpp-75">
          <mxGeometry relative="1" as="geometry" />
        </mxCell>
        <mxCell id="BRf2fIvqZhWapeU_Ivpp-63" value="取出可能与&lt;br&gt;此行政区&lt;br&gt;相交的网格" style="shape=mxgraph.flowchart.data;strokeWidth=2;gradientColor=none;gradientDirection=north;fontStyle=0;html=1;" vertex="1" parent="1">
          <mxGeometry x="675.5" y="2170" width="159" height="80" as="geometry" />
        </mxCell>
        <mxCell id="BRf2fIvqZhWapeU_Ivpp-72" value="" style="rounded=0;whiteSpace=wrap;html=1;fillColor=#d5e8d4;strokeColor=#82b366;" vertex="1" parent="1">
          <mxGeometry x="930" y="1980" width="180" height="410" as="geometry" />
        </mxCell>
        <mxCell id="BRf2fIvqZhWapeU_Ivpp-113" style="edgeStyle=orthogonalEdgeStyle;rounded=0;orthogonalLoop=1;jettySize=auto;html=1;exitX=0.5;exitY=1;exitDx=0;exitDy=0;exitPerimeter=0;entryX=0.563;entryY=0;entryDx=0;entryDy=0;entryPerimeter=0;" edge="1" parent="1" source="BRf2fIvqZhWapeU_Ivpp-74" target="BRf2fIvqZhWapeU_Ivpp-63">
          <mxGeometry relative="1" as="geometry" />
        </mxCell>
        <mxCell id="BRf2fIvqZhWapeU_Ivpp-74" value="按顺序取出&lt;br style=&quot;border-color: var(--border-color);&quot;&gt;一个行政区域&lt;br&gt;形成图形格式" style="strokeWidth=2;html=1;shape=mxgraph.flowchart.direct_data;whiteSpace=wrap;" vertex="1" parent="1">
          <mxGeometry x="690" y="2040.25" width="150" height="69.75" as="geometry" />
        </mxCell>
        <mxCell id="BRf2fIvqZhWapeU_Ivpp-73" value="" style="endArrow=classic;html=1;rounded=0;entryX=0.5;entryY=0;entryDx=0;entryDy=0;" edge="1" parent="1" target="BRf2fIvqZhWapeU_Ivpp-78">
          <mxGeometry width="50" height="50" relative="1" as="geometry">
            <mxPoint x="830" y="2078" as="sourcePoint" />
            <mxPoint x="1029.96" y="2083.02" as="targetPoint" />
            <Array as="points">
              <mxPoint x="1035" y="2080" />
            </Array>
          </mxGeometry>
        </mxCell>
        <mxCell id="BRf2fIvqZhWapeU_Ivpp-75" value="按顺序取出&lt;br style=&quot;border-color: var(--border-color);&quot;&gt;&lt;span style=&quot;&quot;&gt;一个网格&lt;br&gt;形成图形格式&lt;br&gt;&lt;/span&gt;" style="strokeWidth=2;html=1;shape=mxgraph.flowchart.direct_data;whiteSpace=wrap;" vertex="1" parent="1">
          <mxGeometry x="685" y="2310" width="140" height="75.5" as="geometry" />
        </mxCell>
        <mxCell id="BRf2fIvqZhWapeU_Ivpp-76" value="地理数据信息" style="strokeWidth=2;html=1;shape=mxgraph.flowchart.database;whiteSpace=wrap;" vertex="1" parent="1">
          <mxGeometry x="91" y="2043" width="177.5" height="70" as="geometry" />
        </mxCell>
        <mxCell id="BRf2fIvqZhWapeU_Ivpp-77" value="甲烷网格信息" style="strokeWidth=2;html=1;shape=mxgraph.flowchart.database;whiteSpace=wrap;" vertex="1" parent="1">
          <mxGeometry x="91" y="2170" width="179" height="80" as="geometry" />
        </mxCell>
        <mxCell id="BRf2fIvqZhWapeU_Ivpp-78" value="计算相交部分" style="rounded=1;whiteSpace=wrap;html=1;absoluteArcSize=1;arcSize=14;strokeWidth=2;" vertex="1" parent="1">
          <mxGeometry x="985" y="2130" width="100" height="100" as="geometry" />
        </mxCell>
        <mxCell id="BRf2fIvqZhWapeU_Ivpp-79" value="" style="endArrow=classic;html=1;rounded=0;entryX=0.5;entryY=1;entryDx=0;entryDy=0;" edge="1" parent="1" source="BRf2fIvqZhWapeU_Ivpp-75" target="BRf2fIvqZhWapeU_Ivpp-78">
          <mxGeometry width="50" height="50" relative="1" as="geometry">
            <mxPoint x="985" y="2310" as="sourcePoint" />
            <mxPoint x="1035" y="2260" as="targetPoint" />
            <Array as="points">
              <mxPoint x="1035" y="2350" />
            </Array>
          </mxGeometry>
        </mxCell>
        <mxCell id="BRf2fIvqZhWapeU_Ivpp-87" value="" style="endArrow=classic;html=1;rounded=0;exitX=1;exitY=0.5;exitDx=0;exitDy=0;exitPerimeter=0;" edge="1" parent="1" source="BRf2fIvqZhWapeU_Ivpp-77" target="BRf2fIvqZhWapeU_Ivpp-90">
          <mxGeometry width="50" height="50" relative="1" as="geometry">
            <mxPoint x="560" y="2290" as="sourcePoint" />
            <mxPoint x="610" y="2240" as="targetPoint" />
          </mxGeometry>
        </mxCell>
        <mxCell id="BRf2fIvqZhWapeU_Ivpp-109" style="edgeStyle=orthogonalEdgeStyle;rounded=0;orthogonalLoop=1;jettySize=auto;html=1;exitX=1;exitY=0.5;exitDx=0;exitDy=0;exitPerimeter=0;entryX=0.095;entryY=0.5;entryDx=0;entryDy=0;entryPerimeter=0;" edge="1" parent="1" source="BRf2fIvqZhWapeU_Ivpp-90" target="BRf2fIvqZhWapeU_Ivpp-63">
          <mxGeometry relative="1" as="geometry" />
        </mxCell>
        <mxCell id="BRf2fIvqZhWapeU_Ivpp-90" value="网格位置信息" style="shape=tape;whiteSpace=wrap;html=1;strokeWidth=2;size=0.19" vertex="1" parent="1">
          <mxGeometry x="420.5" y="2170" width="125" height="80" as="geometry" />
        </mxCell>
        <mxCell id="BRf2fIvqZhWapeU_Ivpp-95" value="" style="rounded=0;whiteSpace=wrap;html=1;fillColor=#e1d5e7;strokeColor=#9673a6;" vertex="1" parent="1">
          <mxGeometry x="60" y="2490" width="1010" height="290" as="geometry" />
        </mxCell>
        <mxCell id="BRf2fIvqZhWapeU_Ivpp-115" style="edgeStyle=orthogonalEdgeStyle;rounded=0;orthogonalLoop=1;jettySize=auto;html=1;exitX=0.5;exitY=0;exitDx=0;exitDy=0;entryX=0.5;entryY=1;entryDx=0;entryDy=0;" edge="1" parent="1" source="BRf2fIvqZhWapeU_Ivpp-95" target="BRf2fIvqZhWapeU_Ivpp-104">
          <mxGeometry relative="1" as="geometry">
            <Array as="points">
              <mxPoint x="755" y="2490" />
            </Array>
          </mxGeometry>
        </mxCell>
        <mxCell id="BRf2fIvqZhWapeU_Ivpp-137" value="下一个网格" style="edgeLabel;html=1;align=center;verticalAlign=middle;resizable=0;points=[];fontSize=24;" vertex="1" connectable="0" parent="BRf2fIvqZhWapeU_Ivpp-115">
          <mxGeometry x="0.6462" y="4" relative="1" as="geometry">
            <mxPoint as="offset" />
          </mxGeometry>
        </mxCell>
        <mxCell id="BRf2fIvqZhWapeU_Ivpp-100" style="edgeStyle=orthogonalEdgeStyle;rounded=0;orthogonalLoop=1;jettySize=auto;html=1;" edge="1" parent="1" source="BRf2fIvqZhWapeU_Ivpp-92" target="BRf2fIvqZhWapeU_Ivpp-99">
          <mxGeometry relative="1" as="geometry" />
        </mxCell>
        <mxCell id="BRf2fIvqZhWapeU_Ivpp-92" value="每个网格对应的&lt;br&gt;甲烷浓度" style="shape=tape;whiteSpace=wrap;html=1;strokeWidth=2;size=0.19" vertex="1" parent="1">
          <mxGeometry x="111.5" y="2530" width="150" height="100" as="geometry" />
        </mxCell>
        <mxCell id="BRf2fIvqZhWapeU_Ivpp-86" value="" style="endArrow=classic;html=1;rounded=0;" edge="1" parent="1" source="BRf2fIvqZhWapeU_Ivpp-77" target="BRf2fIvqZhWapeU_Ivpp-92">
          <mxGeometry width="50" height="50" relative="1" as="geometry">
            <mxPoint x="560" y="2290" as="sourcePoint" />
            <mxPoint x="180" y="2370" as="targetPoint" />
          </mxGeometry>
        </mxCell>
        <mxCell id="BRf2fIvqZhWapeU_Ivpp-96" value="" style="endArrow=classic;html=1;rounded=0;exitX=1;exitY=0.5;exitDx=0;exitDy=0;entryX=1;entryY=0.5;entryDx=0;entryDy=0;" edge="1" parent="1" target="BRf2fIvqZhWapeU_Ivpp-97">
          <mxGeometry width="50" height="50" relative="1" as="geometry">
            <mxPoint x="1065" y="2200" as="sourcePoint" />
            <mxPoint x="720" y="2580" as="targetPoint" />
            <Array as="points">
              <mxPoint x="1140" y="2200" />
              <mxPoint x="1140" y="2580" />
            </Array>
          </mxGeometry>
        </mxCell>
        <mxCell id="BRf2fIvqZhWapeU_Ivpp-130" style="edgeStyle=orthogonalEdgeStyle;rounded=0;orthogonalLoop=1;jettySize=auto;html=1;exitX=0.5;exitY=1;exitDx=0;exitDy=0;" edge="1" parent="1" source="BRf2fIvqZhWapeU_Ivpp-97" target="BRf2fIvqZhWapeU_Ivpp-128">
          <mxGeometry relative="1" as="geometry" />
        </mxCell>
        <mxCell id="BRf2fIvqZhWapeU_Ivpp-97" value="相乘" style="rounded=1;whiteSpace=wrap;html=1;absoluteArcSize=1;arcSize=14;strokeWidth=2;" vertex="1" parent="1">
          <mxGeometry x="640" y="2530" width="100" height="100" as="geometry" />
        </mxCell>
        <mxCell id="BRf2fIvqZhWapeU_Ivpp-102" style="edgeStyle=orthogonalEdgeStyle;rounded=0;orthogonalLoop=1;jettySize=auto;html=1;exitX=1;exitY=0.5;exitDx=0;exitDy=0;" edge="1" parent="1" source="BRf2fIvqZhWapeU_Ivpp-99" target="BRf2fIvqZhWapeU_Ivpp-97">
          <mxGeometry relative="1" as="geometry" />
        </mxCell>
        <mxCell id="BRf2fIvqZhWapeU_Ivpp-99" value="对应网格浓度数据" style="shape=parallelogram;html=1;strokeWidth=2;perimeter=parallelogramPerimeter;whiteSpace=wrap;rounded=1;arcSize=12;size=0.23;" vertex="1" parent="1">
          <mxGeometry x="350" y="2530" width="150" height="100" as="geometry" />
        </mxCell>
        <mxCell id="BRf2fIvqZhWapeU_Ivpp-125" style="edgeStyle=orthogonalEdgeStyle;rounded=0;orthogonalLoop=1;jettySize=auto;html=1;exitX=0;exitY=0.5;exitDx=0;exitDy=0;" edge="1" parent="1" source="BRf2fIvqZhWapeU_Ivpp-121">
          <mxGeometry relative="1" as="geometry">
            <mxPoint x="450" y="2880" as="targetPoint" />
          </mxGeometry>
        </mxCell>
        <mxCell id="BRf2fIvqZhWapeU_Ivpp-121" value="求和" style="rounded=1;whiteSpace=wrap;html=1;strokeWidth=2;arcSize=12;" vertex="1" parent="1">
          <mxGeometry x="630" y="2850" width="120" height="60" as="geometry" />
        </mxCell>
        <mxCell id="BRf2fIvqZhWapeU_Ivpp-128" value="存储数据" style="strokeWidth=2;html=1;shape=mxgraph.flowchart.stored_data;whiteSpace=wrap;" vertex="1" parent="1">
          <mxGeometry x="640" y="2690" width="100" height="60" as="geometry" />
        </mxCell>
        <mxCell id="BRf2fIvqZhWapeU_Ivpp-131" value="" style="endArrow=none;html=1;rounded=0;entryX=0.5;entryY=1;entryDx=0;entryDy=0;entryPerimeter=0;" edge="1" parent="1" source="BRf2fIvqZhWapeU_Ivpp-121" target="BRf2fIvqZhWapeU_Ivpp-128">
          <mxGeometry width="50" height="50" relative="1" as="geometry">
            <mxPoint x="650" y="2800" as="sourcePoint" />
            <mxPoint x="700" y="2750" as="targetPoint" />
          </mxGeometry>
        </mxCell>
        <mxCell id="BRf2fIvqZhWapeU_Ivpp-132" value="一行政区的&lt;br style=&quot;border-color: var(--border-color);&quot;&gt;甲烷总量" style="strokeWidth=2;html=1;shape=mxgraph.flowchart.stored_data;whiteSpace=wrap;" vertex="1" parent="1">
          <mxGeometry x="321" y="2840" width="140" height="80" as="geometry" />
        </mxCell>
        <mxCell id="BRf2fIvqZhWapeU_Ivpp-142" style="edgeStyle=orthogonalEdgeStyle;rounded=0;orthogonalLoop=1;jettySize=auto;html=1;exitX=0;exitY=0.5;exitDx=0;exitDy=0;exitPerimeter=0;entryX=0.613;entryY=0.02;entryDx=0;entryDy=0;entryPerimeter=0;" edge="1" parent="1" source="BRf2fIvqZhWapeU_Ivpp-75" target="BRf2fIvqZhWapeU_Ivpp-99">
          <mxGeometry relative="1" as="geometry" />
        </mxCell>
      </root>
    </mxGraphModel>
  </diagram>
</mxfile>
